solid OpenSCAD_Model
  facet normal -1 0 0
    outer loop
      vertex 0 72 0
      vertex 0 0 0
      vertex 0 72 2
    endloop
  endfacet
  facet normal -1 0 0
    outer loop
      vertex 0 72 2
      vertex 0 73 14
      vertex 0 73 2
    endloop
  endfacet
  facet normal -1 0 0
    outer loop
      vertex 0 0 14
      vertex 0 72 2
      vertex 0 0 0
    endloop
  endfacet
  facet normal -1 0 0
    outer loop
      vertex 0 72 2
      vertex 0 0 14
      vertex 0 73 14
    endloop
  endfacet
  facet normal -0 0 1
    outer loop
      vertex 14 98 2
      vertex 37 92 2
      vertex 37 104 2
    endloop
  endfacet
  facet normal 0 0 1
    outer loop
      vertex 37 92 2
      vertex 33.5 85 2
      vertex 35.5 85 2
    endloop
  endfacet
  facet normal 0 0 1
    outer loop
      vertex 33.5 85 2
      vertex 30 85 2
      vertex 33.5 73 2
    endloop
  endfacet
  facet normal 0 0 1
    outer loop
      vertex 37 92 2
      vertex 30 85 2
      vertex 33.5 85 2
    endloop
  endfacet
  facet normal 0 0 1
    outer loop
      vertex 37 92 2
      vertex 28 85 2
      vertex 30 85 2
    endloop
  endfacet
  facet normal 0 0 1
    outer loop
      vertex 15 73 2
      vertex 28 85 2
      vertex 15 85 2
    endloop
  endfacet
  facet normal 0 0 1
    outer loop
      vertex 37 92 2
      vertex 14 98 2
      vertex 28 85 2
    endloop
  endfacet
  facet normal 0 0 1
    outer loop
      vertex 14 98 2
      vertex 37 104 2
      vertex 14 104 2
    endloop
  endfacet
  facet normal 0 0 1
    outer loop
      vertex 28 85 2
      vertex 14 98 2
      vertex 15 85 2
    endloop
  endfacet
  facet normal 0 0 1
    outer loop
      vertex 12.5 85 2
      vertex 14 98 2
      vertex 12.5 98 2
    endloop
  endfacet
  facet normal 0 0 1
    outer loop
      vertex 14 98 2
      vertex 12.5 85 2
      vertex 15 85 2
    endloop
  endfacet
  facet normal 0 0 1
    outer loop
      vertex 52 106 2
      vertex 39 106 2
      vertex 52 92 2
    endloop
  endfacet
  facet normal -0 0 1
    outer loop
      vertex 54 92 2
      vertex 57.5 85 2
      vertex 57.5 98 2
    endloop
  endfacet
  facet normal 0 0 1
    outer loop
      vertex 35.5 72 2
      vertex 55.5 72 2
      vertex 55.5 85 2
    endloop
  endfacet
  facet normal 0 0 1
    outer loop
      vertex 57.5 85 2
      vertex 54 92 2
      vertex 55.5 85 2
    endloop
  endfacet
  facet normal 0 0 1
    outer loop
      vertex 54 92 2
      vertex 57.5 98 2
      vertex 54 98 2
    endloop
  endfacet
  facet normal -0 0 1
    outer loop
      vertex 126 58 2
      vertex 137 43 2
      vertex 137 71 2
    endloop
  endfacet
  facet normal 0 0 1
    outer loop
      vertex 137 43 2
      vertex 126 58 2
      vertex 137 30 2
    endloop
  endfacet
  facet normal 0 0 1
    outer loop
      vertex 126 14 2
      vertex 137 30 2
      vertex 126 58 2
    endloop
  endfacet
  facet normal -0 0 1
    outer loop
      vertex 55.5 71 2
      vertex 126 58 2
      vertex 137 71 2
    endloop
  endfacet
  facet normal -0 0 1
    outer loop
      vertex 52 92 2
      vertex 55.5 85 2
      vertex 54 92 2
    endloop
  endfacet
  facet normal 0 0 1
    outer loop
      vertex 35.5 85 2
      vertex 55.5 85 2
      vertex 52 92 2
    endloop
  endfacet
  facet normal 0 0 1
    outer loop
      vertex 39 92 2
      vertex 52 92 2
      vertex 39 106 2
    endloop
  endfacet
  facet normal 0 0 1
    outer loop
      vertex 35.5 85 2
      vertex 52 92 2
      vertex 39 92 2
    endloop
  endfacet
  facet normal 0 0 1
    outer loop
      vertex 35.5 85 2
      vertex 39 92 2
      vertex 37 92 2
    endloop
  endfacet
  facet normal 0 0 1
    outer loop
      vertex 35.5 72 2
      vertex 55.5 85 2
      vertex 35.5 85 2
    endloop
  endfacet
  facet normal 0 0 1
    outer loop
      vertex 55.5 72 2
      vertex 35.5 72 2
      vertex 55.5 71 2
    endloop
  endfacet
  facet normal 0 0 1
    outer loop
      vertex 35.5 71 2
      vertex 55.5 71 2
      vertex 35.5 72 2
    endloop
  endfacet
  facet normal 0 0 1
    outer loop
      vertex 13 58 2
      vertex 55.5 71 2
      vertex 35.5 71 2
    endloop
  endfacet
  facet normal 0 0 1
    outer loop
      vertex 13 58 2
      vertex 35.5 71 2
      vertex 30 71 2
    endloop
  endfacet
  facet normal 0 0 1
    outer loop
      vertex 13 58 2
      vertex 30 71 2
      vertex 29 71 2
    endloop
  endfacet
  facet normal 0 0 1
    outer loop
      vertex 13 58 2
      vertex 29 71 2
      vertex 28 71 2
    endloop
  endfacet
  facet normal 0 0 1
    outer loop
      vertex 28 85 2
      vertex 15 73 2
      vertex 28 71 2
    endloop
  endfacet
  facet normal 0 0 1
    outer loop
      vertex 15 71 2
      vertex 28 71 2
      vertex 15 73 2
    endloop
  endfacet
  facet normal 0 0 1
    outer loop
      vertex 13 58 2
      vertex 28 71 2
      vertex 15 71 2
    endloop
  endfacet
  facet normal 0 0 1
    outer loop
      vertex 55.5 71 2
      vertex 13 58 2
      vertex 126 58 2
    endloop
  endfacet
  facet normal 0 0 1
    outer loop
      vertex 2 2 2
      vertex 13 58 2
      vertex 2 71 2
    endloop
  endfacet
  facet normal -0 0 1
    outer loop
      vertex 2 71 2
      vertex 13 58 2
      vertex 15 71 2
    endloop
  endfacet
  facet normal -0 0 1
    outer loop
      vertex 137 43 2
      vertex 139 30 2
      vertex 139 43 2
    endloop
  endfacet
  facet normal 0 0 1
    outer loop
      vertex 139 30 2
      vertex 137 43 2
      vertex 137 30 2
    endloop
  endfacet
  facet normal 0 0 1
    outer loop
      vertex 137 30 2
      vertex 126 14 2
      vertex 137 2 2
    endloop
  endfacet
  facet normal -0 0 1
    outer loop
      vertex 13 14 2
      vertex 137 2 2
      vertex 126 14 2
    endloop
  endfacet
  facet normal 0 0 1
    outer loop
      vertex 13 14 2
      vertex 2 2 2
      vertex 137 2 2
    endloop
  endfacet
  facet normal 0 0 1
    outer loop
      vertex 13 58 2
      vertex 2 2 2
      vertex 13 14 2
    endloop
  endfacet
  facet normal 0 0 1
    outer loop
      vertex 33.5 73 2
      vertex 30 85 2
      vertex 30 73 2
    endloop
  endfacet
  facet normal 0 0 1
    outer loop
      vertex 13 83 2
      vertex 0 73 2
      vertex 13 73 2
    endloop
  endfacet
  facet normal -0 0 1
    outer loop
      vertex -10 83 2
      vertex 0 73 2
      vertex 13 83 2
    endloop
  endfacet
  facet normal 0 0 1
    outer loop
      vertex -10 72 2
      vertex 0 73 2
      vertex -10 83 2
    endloop
  endfacet
  facet normal 0 0 1
    outer loop
      vertex 0 73 2
      vertex -10 72 2
      vertex 0 72 2
    endloop
  endfacet
  facet normal 1 0 0
    outer loop
      vertex 139 30 14
      vertex 139 0 14
      vertex 139 30 2
    endloop
  endfacet
  facet normal 1 0 0
    outer loop
      vertex 139 43 2
      vertex 139 73 14
      vertex 139 43 14
    endloop
  endfacet
  facet normal 1 0 0
    outer loop
      vertex 139 73 14
      vertex 139 43 2
      vertex 139 73 0
    endloop
  endfacet
  facet normal 1 -0 0
    outer loop
      vertex 139 30 2
      vertex 139 73 0
      vertex 139 43 2
    endloop
  endfacet
  facet normal 1 0 0
    outer loop
      vertex 139 30 2
      vertex 139 0 0
      vertex 139 73 0
    endloop
  endfacet
  facet normal 1 0 0
    outer loop
      vertex 139 0 0
      vertex 139 30 2
      vertex 139 0 14
    endloop
  endfacet
  facet normal 0 0 -1
    outer loop
      vertex 126 58 0
      vertex 139 0 0
      vertex 126 14 0
    endloop
  endfacet
  facet normal 0 0 -1
    outer loop
      vertex 139 0 0
      vertex 13 14 0
      vertex 126 14 0
    endloop
  endfacet
  facet normal 0 0 -1
    outer loop
      vertex 0 72 0
      vertex 13 58 0
      vertex 13 14 0
    endloop
  endfacet
  facet normal 0 0 -1
    outer loop
      vertex 10.5 97.5 0
      vertex 12.5 98 0
      vertex 10.5 85 0
    endloop
  endfacet
  facet normal 0 0 -1
    outer loop
      vertex 13 58 0
      vertex 10.5 85 0
      vertex 12.5 98 0
    endloop
  endfacet
  facet normal 0 0 -1
    outer loop
      vertex 13 58 0
      vertex 0 72 0
      vertex 10.5 85 0
    endloop
  endfacet
  facet normal -0 0 -1
    outer loop
      vertex 10.5 85 0
      vertex 0 72 0
      vertex 7.5 85 0
    endloop
  endfacet
  facet normal 0 0 -1
    outer loop
      vertex 0 72 0
      vertex 13 14 0
      vertex 0 0 0
    endloop
  endfacet
  facet normal 0 0 -1
    outer loop
      vertex 0 0 0
      vertex 13 14 0
      vertex 139 0 0
    endloop
  endfacet
  facet normal 0 0 -1
    outer loop
      vertex 139 0 0
      vertex 126 58 0
      vertex 139 73 0
    endloop
  endfacet
  facet normal 0 0 -1
    outer loop
      vertex 126 58 0
      vertex 57.5 73 0
      vertex 139 73 0
    endloop
  endfacet
  facet normal 0 0 -1
    outer loop
      vertex 57.5 73 0
      vertex 54 98 0
      vertex 57.5 98 0
    endloop
  endfacet
  facet normal 0 0 -1
    outer loop
      vertex 54 98 0
      vertex 36.5 106 0
      vertex 54 106 0
    endloop
  endfacet
  facet normal 0 0 -1
    outer loop
      vertex 57.5 73 0
      vertex 36.5 106 0
      vertex 54 98 0
    endloop
  endfacet
  facet normal 0 0 -1
    outer loop
      vertex 34.5 118.5 0
      vertex 36.5 106 0
      vertex 34.5 106 0
    endloop
  endfacet
  facet normal 0 0 -1
    outer loop
      vertex 57.5 73 0
      vertex 34.5 106 0
      vertex 36.5 106 0
    endloop
  endfacet
  facet normal 0 0 -1
    outer loop
      vertex 57.5 73 0
      vertex 31.5 106 0
      vertex 34.5 106 0
    endloop
  endfacet
  facet normal 0 0 -1
    outer loop
      vertex 14 120.5 0
      vertex 31.5 106 0
      vertex 14 98 0
    endloop
  endfacet
  facet normal 0 0 -1
    outer loop
      vertex 57.5 73 0
      vertex 14 98 0
      vertex 31.5 106 0
    endloop
  endfacet
  facet normal 0 0 -1
    outer loop
      vertex 13 58 0
      vertex 57.5 73 0
      vertex 126 58 0
    endloop
  endfacet
  facet normal 0 0 -1
    outer loop
      vertex 13 58 0
      vertex 14 98 0
      vertex 57.5 73 0
    endloop
  endfacet
  facet normal -0 0 -1
    outer loop
      vertex 14 98 0
      vertex 13 58 0
      vertex 12.5 98 0
    endloop
  endfacet
  facet normal 0 0 -1
    outer loop
      vertex 36.5 106 0
      vertex 34.5 118.5 0
      vertex 36.5 120.5 0
    endloop
  endfacet
  facet normal 0 0 -1
    outer loop
      vertex 31.5 118.5 0
      vertex 36.5 120.5 0
      vertex 34.5 118.5 0
    endloop
  endfacet
  facet normal 0 0 -1
    outer loop
      vertex 31.5 118.5 0
      vertex 14 120.5 0
      vertex 36.5 120.5 0
    endloop
  endfacet
  facet normal 0 0 -1
    outer loop
      vertex 31.5 106 0
      vertex 14 120.5 0
      vertex 31.5 118.5 0
    endloop
  endfacet
  facet normal -0 0 -1
    outer loop
      vertex 12.5 98 0
      vertex 10.5 97.5 0
      vertex 12.5 99.5 0
    endloop
  endfacet
  facet normal 0 0 -1
    outer loop
      vertex 7.5 97.5 0
      vertex 12.5 99.5 0
      vertex 10.5 97.5 0
    endloop
  endfacet
  facet normal 0 0 -1
    outer loop
      vertex -10 72 0
      vertex 7.5 85 0
      vertex 0 72 0
    endloop
  endfacet
  facet normal -0 0 -1
    outer loop
      vertex 7.5 85 0
      vertex -10 72 0
      vertex -10 99.5 0
    endloop
  endfacet
  facet normal 0 0 -1
    outer loop
      vertex 7.5 97.5 0
      vertex -10 99.5 0
      vertex 12.5 99.5 0
    endloop
  endfacet
  facet normal 0 0 -1
    outer loop
      vertex 7.5 85 0
      vertex -10 99.5 0
      vertex 7.5 97.5 0
    endloop
  endfacet
  facet normal 0 -1 0
    outer loop
      vertex 0 0 0
      vertex 139 0 14
      vertex 0 0 14
    endloop
  endfacet
  facet normal 0 -1 -0
    outer loop
      vertex 139 0 14
      vertex 0 0 0
      vertex 139 0 0
    endloop
  endfacet
  facet normal 0 1 -0
    outer loop
      vertex 139 73 0
      vertex 57.5 73 14
      vertex 139 73 14
    endloop
  endfacet
  facet normal 0 1 0
    outer loop
      vertex 57.5 73 14
      vertex 139 73 0
      vertex 57.5 73 0
    endloop
  endfacet
  facet normal 0 1 -0
    outer loop
      vertex 13 73 2
      vertex 0 73 14
      vertex 13 73 14
    endloop
  endfacet
  facet normal 0 1 0
    outer loop
      vertex 0 73 14
      vertex 13 73 2
      vertex 0 73 2
    endloop
  endfacet
  facet normal 0 1 -0
    outer loop
      vertex 33.5 73 2
      vertex 30 73 14
      vertex 33.5 73 14
    endloop
  endfacet
  facet normal 0 1 0
    outer loop
      vertex 30 73 14
      vertex 33.5 73 2
      vertex 30 73 2
    endloop
  endfacet
  facet normal 1 -0 0
    outer loop
      vertex 13 14 2
      vertex 13 58 0
      vertex 13 58 2
    endloop
  endfacet
  facet normal 1 0 0
    outer loop
      vertex 13 58 0
      vertex 13 14 2
      vertex 13 14 0
    endloop
  endfacet
  facet normal -1 0 0
    outer loop
      vertex 126 14 0
      vertex 126 58 2
      vertex 126 58 0
    endloop
  endfacet
  facet normal -1 -0 0
    outer loop
      vertex 126 58 2
      vertex 126 14 0
      vertex 126 14 2
    endloop
  endfacet
  facet normal 0 1 -0
    outer loop
      vertex 126 14 0
      vertex 13 14 2
      vertex 126 14 2
    endloop
  endfacet
  facet normal 0 1 0
    outer loop
      vertex 13 14 2
      vertex 126 14 0
      vertex 13 14 0
    endloop
  endfacet
  facet normal 0 -1 0
    outer loop
      vertex 13 58 0
      vertex 126 58 2
      vertex 13 58 2
    endloop
  endfacet
  facet normal 0 -1 -0
    outer loop
      vertex 126 58 2
      vertex 13 58 0
      vertex 126 58 0
    endloop
  endfacet
  facet normal -1 0 0
    outer loop
      vertex 137 2 2
      vertex 137 30 14
      vertex 137 30 2
    endloop
  endfacet
  facet normal -1 -0 0
    outer loop
      vertex 137 30 14
      vertex 137 2 2
      vertex 137 2 14
    endloop
  endfacet
  facet normal -1 0 0
    outer loop
      vertex 137 43 2
      vertex 137 71 14
      vertex 137 71 2
    endloop
  endfacet
  facet normal -1 -0 0
    outer loop
      vertex 137 71 14
      vertex 137 43 2
      vertex 137 43 14
    endloop
  endfacet
  facet normal 0 0 1
    outer loop
      vertex 57.5 85 14
      vertex 55.5 85 14
      vertex 57.5 73 14
    endloop
  endfacet
  facet normal 0 0 1
    outer loop
      vertex 139 73 14
      vertex 137 71 14
      vertex 139 43 14
    endloop
  endfacet
  facet normal -0 0 1
    outer loop
      vertex 57.5 73 14
      vertex 137 71 14
      vertex 139 73 14
    endloop
  endfacet
  facet normal 0 0 1
    outer loop
      vertex 55.5 72 14
      vertex 57.5 73 14
      vertex 55.5 85 14
    endloop
  endfacet
  facet normal 0 0 1
    outer loop
      vertex 55.5 71 14
      vertex 57.5 73 14
      vertex 55.5 72 14
    endloop
  endfacet
  facet normal 0 0 1
    outer loop
      vertex 57.5 73 14
      vertex 55.5 71 14
      vertex 137 71 14
    endloop
  endfacet
  facet normal 0 0 1
    outer loop
      vertex 139 43 14
      vertex 137 71 14
      vertex 137 43 14
    endloop
  endfacet
  facet normal 0 0 1
    outer loop
      vertex 12.5 99.5 14
      vertex -8 97.5 14
      vertex 12.5 97.5 14
    endloop
  endfacet
  facet normal 0 0 1
    outer loop
      vertex -8 97.5 14
      vertex -10 99.5 14
      vertex -8 85 14
    endloop
  endfacet
  facet normal -0 0 1
    outer loop
      vertex -10 99.5 14
      vertex -8 97.5 14
      vertex 12.5 99.5 14
    endloop
  endfacet
  facet normal 0 0 1
    outer loop
      vertex 28 71 14
      vertex 30 73 14
      vertex 30 85 14
    endloop
  endfacet
  facet normal 0 0 1
    outer loop
      vertex 30 73 14
      vertex 29 71 14
      vertex 30 71 14
    endloop
  endfacet
  facet normal 0 0 1
    outer loop
      vertex 30 73 14
      vertex 28 71 14
      vertex 29 71 14
    endloop
  endfacet
  facet normal -0 0 1
    outer loop
      vertex 13 83 14
      vertex 28 71 14
      vertex 30 85 14
    endloop
  endfacet
  facet normal 0 0 1
    outer loop
      vertex 28 71 14
      vertex 13 83 14
      vertex 15 71 14
    endloop
  endfacet
  facet normal -0 0 1
    outer loop
      vertex -8 85 14
      vertex 13 83 14
      vertex 30 85 14
    endloop
  endfacet
  facet normal 0 0 1
    outer loop
      vertex -8 85 14
      vertex -10 83 14
      vertex 13 83 14
    endloop
  endfacet
  facet normal 0 0 1
    outer loop
      vertex -10 83 14
      vertex -8 85 14
      vertex -10 99.5 14
    endloop
  endfacet
  facet normal -0 0 1
    outer loop
      vertex 33.5 73 14
      vertex 35.5 72 14
      vertex 35.5 85 14
    endloop
  endfacet
  facet normal 0 0 1
    outer loop
      vertex 33.5 73 14
      vertex 35.5 85 14
      vertex 33.5 85 14
    endloop
  endfacet
  facet normal 0 0 1
    outer loop
      vertex 35.5 72 14
      vertex 33.5 73 14
      vertex 35.5 71 14
    endloop
  endfacet
  facet normal 0 0 1
    outer loop
      vertex 30 71 14
      vertex 33.5 73 14
      vertex 30 73 14
    endloop
  endfacet
  facet normal 0 0 1
    outer loop
      vertex 33.5 73 14
      vertex 30 71 14
      vertex 35.5 71 14
    endloop
  endfacet
  facet normal -0 0 1
    outer loop
      vertex 13 73 14
      vertex 15 71 14
      vertex 13 83 14
    endloop
  endfacet
  facet normal 0 0 1
    outer loop
      vertex 13 73 14
      vertex 2 71 14
      vertex 15 71 14
    endloop
  endfacet
  facet normal 0 0 1
    outer loop
      vertex 2 71 14
      vertex 0 73 14
      vertex 2 2 14
    endloop
  endfacet
  facet normal -0 0 1
    outer loop
      vertex 0 73 14
      vertex 2 71 14
      vertex 13 73 14
    endloop
  endfacet
  facet normal 0 0 1
    outer loop
      vertex 137 2 14
      vertex 139 30 14
      vertex 137 30 14
    endloop
  endfacet
  facet normal 0 0 1
    outer loop
      vertex 139 30 14
      vertex 137 2 14
      vertex 139 0 14
    endloop
  endfacet
  facet normal -0 0 1
    outer loop
      vertex 2 2 14
      vertex 139 0 14
      vertex 137 2 14
    endloop
  endfacet
  facet normal 0 0 1
    outer loop
      vertex 2 2 14
      vertex 0 0 14
      vertex 139 0 14
    endloop
  endfacet
  facet normal 0 0 1
    outer loop
      vertex 0 0 14
      vertex 2 2 14
      vertex 0 73 14
    endloop
  endfacet
  facet normal 0 -1 0
    outer loop
      vertex 137 43 2
      vertex 139 43 14
      vertex 137 43 14
    endloop
  endfacet
  facet normal 0 -1 -0
    outer loop
      vertex 139 43 14
      vertex 137 43 2
      vertex 139 43 2
    endloop
  endfacet
  facet normal 0 1 -0
    outer loop
      vertex 139 30 2
      vertex 137 30 14
      vertex 139 30 14
    endloop
  endfacet
  facet normal 0 1 0
    outer loop
      vertex 137 30 14
      vertex 139 30 2
      vertex 137 30 2
    endloop
  endfacet
  facet normal -0 0 1
    outer loop
      vertex -2 97.5 2
      vertex 5.5 85 2
      vertex 5.5 97.5 2
    endloop
  endfacet
  facet normal 0 0 1
    outer loop
      vertex 5.5 85 2
      vertex -2 97.5 2
      vertex -2 85 2
    endloop
  endfacet
  facet normal -0 0 1
    outer loop
      vertex -8 97.5 2
      vertex -4 85 2
      vertex -4 97.5 2
    endloop
  endfacet
  facet normal 0 0 1
    outer loop
      vertex -4 85 2
      vertex -8 97.5 2
      vertex -8 85 2
    endloop
  endfacet
  facet normal -1 0 0
    outer loop
      vertex -10 99.5 0
      vertex -10 83 2
      vertex -10 99.5 14
    endloop
  endfacet
  facet normal -1 0 0
    outer loop
      vertex -10 72 0
      vertex -10 83 2
      vertex -10 99.5 0
    endloop
  endfacet
  facet normal -1 -0 0
    outer loop
      vertex -10 83 2
      vertex -10 72 0
      vertex -10 72 2
    endloop
  endfacet
  facet normal -1 -0 0
    outer loop
      vertex -10 99.5 14
      vertex -10 83 2
      vertex -10 83 14
    endloop
  endfacet
  facet normal 0 1 -0
    outer loop
      vertex 5.5 85 2
      vertex -2 85 5
      vertex 5.5 85 5
    endloop
  endfacet
  facet normal 0 1 0
    outer loop
      vertex -2 85 5
      vertex 5.5 85 2
      vertex -2 85 2
    endloop
  endfacet
  facet normal 0 1 -0
    outer loop
      vertex 10.5 85 0
      vertex 7.5 85 5
      vertex 10.5 85 5
    endloop
  endfacet
  facet normal 0 1 0
    outer loop
      vertex 7.5 85 5
      vertex 10.5 85 0
      vertex 7.5 85 0
    endloop
  endfacet
  facet normal 0 1 -0
    outer loop
      vertex 15 85 2
      vertex 12.5 85 5
      vertex 15 85 13
    endloop
  endfacet
  facet normal 0 1 0
    outer loop
      vertex 12.5 85 5
      vertex 15 85 2
      vertex 12.5 85 2
    endloop
  endfacet
  facet normal 0 1 0
    outer loop
      vertex 15 85 13
      vertex 30 85 14
      vertex 28 85 13
    endloop
  endfacet
  facet normal 0 1 -0
    outer loop
      vertex 30 85 2
      vertex 28 85 13
      vertex 30 85 14
    endloop
  endfacet
  facet normal 0 1 0
    outer loop
      vertex 28 85 13
      vertex 30 85 2
      vertex 28 85 2
    endloop
  endfacet
  facet normal 0 1 0
    outer loop
      vertex 30 85 14
      vertex 15 85 13
      vertex -8 85 14
    endloop
  endfacet
  facet normal 0 1 0
    outer loop
      vertex 10.5 85 5
      vertex 15 85 13
      vertex 12.5 85 5
    endloop
  endfacet
  facet normal 0 1 0
    outer loop
      vertex 7.5 85 5
      vertex 15 85 13
      vertex 10.5 85 5
    endloop
  endfacet
  facet normal 0 1 0
    outer loop
      vertex 5.5 85 5
      vertex 15 85 13
      vertex 7.5 85 5
    endloop
  endfacet
  facet normal 0 1 0
    outer loop
      vertex 15 85 13
      vertex 5.5 85 5
      vertex -8 85 14
    endloop
  endfacet
  facet normal 0 1 -0
    outer loop
      vertex -2 85 5
      vertex -8 85 14
      vertex 5.5 85 5
    endloop
  endfacet
  facet normal 0 1 -0
    outer loop
      vertex -4 85 5
      vertex -8 85 14
      vertex -2 85 5
    endloop
  endfacet
  facet normal 0 1 0
    outer loop
      vertex -8 85 2
      vertex -4 85 5
      vertex -4 85 2
    endloop
  endfacet
  facet normal 0 1 0
    outer loop
      vertex -4 85 5
      vertex -8 85 2
      vertex -8 85 14
    endloop
  endfacet
  facet normal -1 0 0
    outer loop
      vertex 10.5 85 0
      vertex 10.5 97.5 5
      vertex 10.5 97.5 0
    endloop
  endfacet
  facet normal -1 -0 0
    outer loop
      vertex 10.5 97.5 5
      vertex 10.5 85 0
      vertex 10.5 85 5
    endloop
  endfacet
  facet normal 1 -0 0
    outer loop
      vertex 7.5 85 5
      vertex 7.5 97.5 0
      vertex 7.5 97.5 5
    endloop
  endfacet
  facet normal 1 0 0
    outer loop
      vertex 7.5 97.5 0
      vertex 7.5 85 5
      vertex 7.5 85 0
    endloop
  endfacet
  facet normal 0 -1 0
    outer loop
      vertex -10 72 0
      vertex 0 72 2
      vertex -10 72 2
    endloop
  endfacet
  facet normal 0 -1 -0
    outer loop
      vertex 0 72 2
      vertex -10 72 0
      vertex 0 72 0
    endloop
  endfacet
  facet normal 1 -0 0
    outer loop
      vertex 30 73 14
      vertex 30 85 2
      vertex 30 85 14
    endloop
  endfacet
  facet normal 1 0 0
    outer loop
      vertex 30 85 2
      vertex 30 73 14
      vertex 30 73 2
    endloop
  endfacet
  facet normal -1 0 0
    outer loop
      vertex 28 71 2
      vertex 28 85 13
      vertex 28 85 2
    endloop
  endfacet
  facet normal -1 -0 0
    outer loop
      vertex 28 85 13
      vertex 28 71 2
      vertex 28 71 13
    endloop
  endfacet
  facet normal 0 -1 0
    outer loop
      vertex 29 71 2
      vertex 30 71 14
      vertex 29 71 14
    endloop
  endfacet
  facet normal 0 -1 -0
    outer loop
      vertex 30 71 14
      vertex 29 71 2
      vertex 30 71 2
    endloop
  endfacet
  facet normal 0 -1 0
    outer loop
      vertex 15 71 13
      vertex 28 71 14
      vertex 15 71 14
    endloop
  endfacet
  facet normal 0 -1 -0
    outer loop
      vertex 28 71 14
      vertex 15 71 13
      vertex 28 71 13
    endloop
  endfacet
  facet normal 0 0 0
    outer loop
      vertex 28 71 13
      vertex 28 71 2
      vertex 28 71 14
    endloop
  endfacet
  facet normal 1 -0 0
    outer loop
      vertex 15 73 13
      vertex 15 85 2
      vertex 15 85 13
    endloop
  endfacet
  facet normal 1 0 0
    outer loop
      vertex 15 85 2
      vertex 15 73 13
      vertex 15 73 2
    endloop
  endfacet
  facet normal -1 0 0
    outer loop
      vertex 13 73 2
      vertex 13 83 14
      vertex 13 83 2
    endloop
  endfacet
  facet normal -1 -0 0
    outer loop
      vertex 13 83 14
      vertex 13 73 2
      vertex 13 73 14
    endloop
  endfacet
  facet normal 0 0 -1
    outer loop
      vertex 15 73 13
      vertex 28 71 13
      vertex 15 71 13
    endloop
  endfacet
  facet normal 0 0 -1
    outer loop
      vertex 28 71 13
      vertex 15 73 13
      vertex 28 85 13
    endloop
  endfacet
  facet normal -0 0 -1
    outer loop
      vertex 28 85 13
      vertex 15 73 13
      vertex 15 85 13
    endloop
  endfacet
  facet normal 1 -0 0
    outer loop
      vertex 12.5 97.5 5
      vertex 12.5 99.5 0
      vertex 12.5 99.5 14
    endloop
  endfacet
  facet normal 1 0 0
    outer loop
      vertex 12.5 97.5 5
      vertex 12.5 99.5 14
      vertex 12.5 97.5 14
    endloop
  endfacet
  facet normal 1 0 0
    outer loop
      vertex 12.5 99.5 0
      vertex 12.5 97.5 5
      vertex 12.5 98 2
    endloop
  endfacet
  facet normal 1 0 0
    outer loop
      vertex 12.5 85 2
      vertex 12.5 97.5 5
      vertex 12.5 85 5
    endloop
  endfacet
  facet normal 1 0 0
    outer loop
      vertex 12.5 97.5 5
      vertex 12.5 85 2
      vertex 12.5 98 2
    endloop
  endfacet
  facet normal 1 0 0
    outer loop
      vertex 12.5 99.5 0
      vertex 12.5 98 2
      vertex 12.5 98 0
    endloop
  endfacet
  facet normal -0 0 1
    outer loop
      vertex 10.5 97.5 5
      vertex 12.5 85 5
      vertex 12.5 97.5 5
    endloop
  endfacet
  facet normal 0 0 1
    outer loop
      vertex 12.5 85 5
      vertex 10.5 97.5 5
      vertex 10.5 85 5
    endloop
  endfacet
  facet normal -0 0 1
    outer loop
      vertex 5.5 97.5 5
      vertex 7.5 85 5
      vertex 7.5 97.5 5
    endloop
  endfacet
  facet normal 0 0 1
    outer loop
      vertex 7.5 85 5
      vertex 5.5 97.5 5
      vertex 5.5 85 5
    endloop
  endfacet
  facet normal -1 0 0
    outer loop
      vertex 5.5 85 2
      vertex 5.5 97.5 5
      vertex 5.5 97.5 2
    endloop
  endfacet
  facet normal -1 -0 0
    outer loop
      vertex 5.5 97.5 5
      vertex 5.5 85 2
      vertex 5.5 85 5
    endloop
  endfacet
  facet normal 1 -0 0
    outer loop
      vertex -2 85 5
      vertex -2 97.5 2
      vertex -2 97.5 5
    endloop
  endfacet
  facet normal 1 0 0
    outer loop
      vertex -2 97.5 2
      vertex -2 85 5
      vertex -2 85 2
    endloop
  endfacet
  facet normal -0 0 1
    outer loop
      vertex -4 97.5 5
      vertex -2 85 5
      vertex -2 97.5 5
    endloop
  endfacet
  facet normal 0 0 1
    outer loop
      vertex -2 85 5
      vertex -4 97.5 5
      vertex -4 85 5
    endloop
  endfacet
  facet normal -1 0 0
    outer loop
      vertex -4 85 2
      vertex -4 97.5 5
      vertex -4 97.5 2
    endloop
  endfacet
  facet normal -1 -0 0
    outer loop
      vertex -4 97.5 5
      vertex -4 85 2
      vertex -4 85 5
    endloop
  endfacet
  facet normal 0 -1 0
    outer loop
      vertex -10 83 2
      vertex 13 83 14
      vertex -10 83 14
    endloop
  endfacet
  facet normal 0 -1 -0
    outer loop
      vertex 13 83 14
      vertex -10 83 2
      vertex 13 83 2
    endloop
  endfacet
  facet normal 0 -1 0
    outer loop
      vertex 7.5 97.5 0
      vertex 10.5 97.5 5
      vertex 7.5 97.5 5
    endloop
  endfacet
  facet normal 0 -1 -0
    outer loop
      vertex 10.5 97.5 5
      vertex 7.5 97.5 0
      vertex 10.5 97.5 0
    endloop
  endfacet
  facet normal 0 -1 0
    outer loop
      vertex -2 97.5 2
      vertex 5.5 97.5 5
      vertex -2 97.5 5
    endloop
  endfacet
  facet normal 0 -1 -0
    outer loop
      vertex 5.5 97.5 5
      vertex -2 97.5 2
      vertex 5.5 97.5 2
    endloop
  endfacet
  facet normal 0 -1 0
    outer loop
      vertex -2 97.5 5
      vertex -8 97.5 14
      vertex -4 97.5 5
    endloop
  endfacet
  facet normal 0 -1 0
    outer loop
      vertex -8 97.5 2
      vertex -4 97.5 5
      vertex -8 97.5 14
    endloop
  endfacet
  facet normal 0 -1 -0
    outer loop
      vertex -4 97.5 5
      vertex -8 97.5 2
      vertex -4 97.5 2
    endloop
  endfacet
  facet normal 0 -1 0
    outer loop
      vertex 5.5 97.5 5
      vertex -8 97.5 14
      vertex -2 97.5 5
    endloop
  endfacet
  facet normal 0 -1 0
    outer loop
      vertex -8 97.5 14
      vertex 5.5 97.5 5
      vertex 12.5 97.5 14
    endloop
  endfacet
  facet normal 0 -1 0
    outer loop
      vertex 7.5 97.5 5
      vertex 12.5 97.5 14
      vertex 5.5 97.5 5
    endloop
  endfacet
  facet normal 0 -1 0
    outer loop
      vertex 10.5 97.5 5
      vertex 12.5 97.5 14
      vertex 7.5 97.5 5
    endloop
  endfacet
  facet normal 0 -1 -0
    outer loop
      vertex 12.5 97.5 14
      vertex 10.5 97.5 5
      vertex 12.5 97.5 5
    endloop
  endfacet
  facet normal 0 1 -0
    outer loop
      vertex 12.5 99.5 0
      vertex -10 99.5 14
      vertex 12.5 99.5 14
    endloop
  endfacet
  facet normal 0 1 0
    outer loop
      vertex -10 99.5 14
      vertex 12.5 99.5 0
      vertex -10 99.5 0
    endloop
  endfacet
  facet normal 1 -0 0
    outer loop
      vertex -8 85 14
      vertex -8 97.5 2
      vertex -8 97.5 14
    endloop
  endfacet
  facet normal 1 0 0
    outer loop
      vertex -8 97.5 2
      vertex -8 85 14
      vertex -8 85 2
    endloop
  endfacet
  facet normal -0 0 1
    outer loop
      vertex 22 118.5 2
      vertex 29.5 106 2
      vertex 29.5 118.5 2
    endloop
  endfacet
  facet normal 0 0 1
    outer loop
      vertex 29.5 106 2
      vertex 22 118.5 2
      vertex 22 106 2
    endloop
  endfacet
  facet normal -0 0 1
    outer loop
      vertex 16 118.5 2
      vertex 20 106 2
      vertex 20 118.5 2
    endloop
  endfacet
  facet normal 0 0 1
    outer loop
      vertex 20 106 2
      vertex 16 118.5 2
      vertex 16 106 2
    endloop
  endfacet
  facet normal -1 0 0
    outer loop
      vertex 14 120.5 0
      vertex 14 104 2
      vertex 14 120.5 14
    endloop
  endfacet
  facet normal -1 0 0
    outer loop
      vertex 14 98 0
      vertex 14 104 2
      vertex 14 120.5 0
    endloop
  endfacet
  facet normal -1 -0 0
    outer loop
      vertex 14 104 2
      vertex 14 98 0
      vertex 14 98 2
    endloop
  endfacet
  facet normal -1 -0 0
    outer loop
      vertex 14 120.5 14
      vertex 14 104 2
      vertex 14 104 14
    endloop
  endfacet
  facet normal 0 1 -0
    outer loop
      vertex 29.5 106 2
      vertex 22 106 5
      vertex 29.5 106 5
    endloop
  endfacet
  facet normal 0 1 0
    outer loop
      vertex 22 106 5
      vertex 29.5 106 2
      vertex 22 106 2
    endloop
  endfacet
  facet normal 0 1 -0
    outer loop
      vertex 34.5 106 0
      vertex 31.5 106 5
      vertex 34.5 106 5
    endloop
  endfacet
  facet normal 0 1 0
    outer loop
      vertex 31.5 106 5
      vertex 34.5 106 0
      vertex 31.5 106 0
    endloop
  endfacet
  facet normal 0 1 -0
    outer loop
      vertex 39 106 2
      vertex 36.5 106 5
      vertex 39 106 13
    endloop
  endfacet
  facet normal 0 1 0
    outer loop
      vertex 39 106 2
      vertex 36.5 106 0
      vertex 36.5 106 5
    endloop
  endfacet
  facet normal 0 1 0
    outer loop
      vertex 36.5 106 0
      vertex 39 106 2
      vertex 54 106 0
    endloop
  endfacet
  facet normal 0 1 0
    outer loop
      vertex 39 106 13
      vertex 54 106 14
      vertex 52 106 13
    endloop
  endfacet
  facet normal 0 1 0
    outer loop
      vertex 54 106 14
      vertex 52 106 2
      vertex 52 106 13
    endloop
  endfacet
  facet normal 0 1 0
    outer loop
      vertex 52 106 2
      vertex 54 106 0
      vertex 39 106 2
    endloop
  endfacet
  facet normal 0 1 -0
    outer loop
      vertex 54 106 0
      vertex 52 106 2
      vertex 54 106 14
    endloop
  endfacet
  facet normal 0 1 0
    outer loop
      vertex 54 106 14
      vertex 39 106 13
      vertex 16 106 14
    endloop
  endfacet
  facet normal 0 1 0
    outer loop
      vertex 34.5 106 5
      vertex 39 106 13
      vertex 36.5 106 5
    endloop
  endfacet
  facet normal 0 1 0
    outer loop
      vertex 31.5 106 5
      vertex 39 106 13
      vertex 34.5 106 5
    endloop
  endfacet
  facet normal 0 1 0
    outer loop
      vertex 29.5 106 5
      vertex 39 106 13
      vertex 31.5 106 5
    endloop
  endfacet
  facet normal 0 1 0
    outer loop
      vertex 39 106 13
      vertex 29.5 106 5
      vertex 16 106 14
    endloop
  endfacet
  facet normal 0 1 -0
    outer loop
      vertex 22 106 5
      vertex 16 106 14
      vertex 29.5 106 5
    endloop
  endfacet
  facet normal 0 1 -0
    outer loop
      vertex 20 106 5
      vertex 16 106 14
      vertex 22 106 5
    endloop
  endfacet
  facet normal 0 1 0
    outer loop
      vertex 16 106 2
      vertex 20 106 5
      vertex 20 106 2
    endloop
  endfacet
  facet normal 0 1 0
    outer loop
      vertex 20 106 5
      vertex 16 106 2
      vertex 16 106 14
    endloop
  endfacet
  facet normal -1 0 0
    outer loop
      vertex 34.5 106 0
      vertex 34.5 118.5 5
      vertex 34.5 118.5 0
    endloop
  endfacet
  facet normal -1 -0 0
    outer loop
      vertex 34.5 118.5 5
      vertex 34.5 106 0
      vertex 34.5 106 5
    endloop
  endfacet
  facet normal 1 -0 0
    outer loop
      vertex 31.5 106 5
      vertex 31.5 118.5 0
      vertex 31.5 118.5 5
    endloop
  endfacet
  facet normal 1 0 0
    outer loop
      vertex 31.5 118.5 0
      vertex 31.5 106 5
      vertex 31.5 106 0
    endloop
  endfacet
  facet normal 1 0 0
    outer loop
      vertex 54 106 14
      vertex 54 98 2
      vertex 54 106 0
    endloop
  endfacet
  facet normal 1 -0 0
    outer loop
      vertex 54 92 14
      vertex 54 98 2
      vertex 54 106 14
    endloop
  endfacet
  facet normal 1 0 0
    outer loop
      vertex 54 98 2
      vertex 54 92 14
      vertex 54 92 2
    endloop
  endfacet
  facet normal 1 0 0
    outer loop
      vertex 54 106 0
      vertex 54 98 2
      vertex 54 98 0
    endloop
  endfacet
  facet normal 0 0 1
    outer loop
      vertex 36.5 120.5 14
      vertex 16 118.5 14
      vertex 36.5 118.5 14
    endloop
  endfacet
  facet normal 0 0 1
    outer loop
      vertex 16 118.5 14
      vertex 14 120.5 14
      vertex 16 106 14
    endloop
  endfacet
  facet normal -0 0 1
    outer loop
      vertex 14 120.5 14
      vertex 16 118.5 14
      vertex 36.5 120.5 14
    endloop
  endfacet
  facet normal 0 0 1
    outer loop
      vertex 54 106 14
      vertex 37 104 14
      vertex 54 92 14
    endloop
  endfacet
  facet normal -0 0 1
    outer loop
      vertex 16 106 14
      vertex 37 104 14
      vertex 54 106 14
    endloop
  endfacet
  facet normal 0 0 1
    outer loop
      vertex 16 106 14
      vertex 14 104 14
      vertex 37 104 14
    endloop
  endfacet
  facet normal 0 0 1
    outer loop
      vertex 14 104 14
      vertex 16 106 14
      vertex 14 120.5 14
    endloop
  endfacet
  facet normal 0 0 1
    outer loop
      vertex 54 92 14
      vertex 37 104 14
      vertex 37 92 14
    endloop
  endfacet
  facet normal -1 0 0
    outer loop
      vertex 52 92 2
      vertex 52 106 13
      vertex 52 106 2
    endloop
  endfacet
  facet normal -1 -0 0
    outer loop
      vertex 52 106 13
      vertex 52 92 2
      vertex 52 92 13
    endloop
  endfacet
  facet normal 0 -1 0
    outer loop
      vertex 37 92 14
      vertex 39 92 13
      vertex 54 92 14
    endloop
  endfacet
  facet normal 0 -1 0
    outer loop
      vertex 37 92 2
      vertex 39 92 13
      vertex 37 92 14
    endloop
  endfacet
  facet normal 0 -1 -0
    outer loop
      vertex 39 92 13
      vertex 37 92 2
      vertex 39 92 2
    endloop
  endfacet
  facet normal 0 -1 0
    outer loop
      vertex 52 92 13
      vertex 54 92 14
      vertex 39 92 13
    endloop
  endfacet
  facet normal 0 -1 0
    outer loop
      vertex 54 92 2
      vertex 52 92 13
      vertex 52 92 2
    endloop
  endfacet
  facet normal 0 -1 0
    outer loop
      vertex 52 92 13
      vertex 54 92 2
      vertex 54 92 14
    endloop
  endfacet
  facet normal 1 -0 0
    outer loop
      vertex 39 92 13
      vertex 39 106 2
      vertex 39 106 13
    endloop
  endfacet
  facet normal 1 0 0
    outer loop
      vertex 39 106 2
      vertex 39 92 13
      vertex 39 92 2
    endloop
  endfacet
  facet normal -1 0 0
    outer loop
      vertex 37 92 2
      vertex 37 104 14
      vertex 37 104 2
    endloop
  endfacet
  facet normal -1 -0 0
    outer loop
      vertex 37 104 14
      vertex 37 92 2
      vertex 37 92 14
    endloop
  endfacet
  facet normal 0 0 -1
    outer loop
      vertex 39 92 13
      vertex 52 106 13
      vertex 52 92 13
    endloop
  endfacet
  facet normal -0 0 -1
    outer loop
      vertex 52 106 13
      vertex 39 92 13
      vertex 39 106 13
    endloop
  endfacet
  facet normal 1 0 0
    outer loop
      vertex 36.5 118.5 5
      vertex 36.5 120.5 14
      vertex 36.5 118.5 14
    endloop
  endfacet
  facet normal 1 0 0
    outer loop
      vertex 36.5 120.5 14
      vertex 36.5 118.5 5
      vertex 36.5 120.5 0
    endloop
  endfacet
  facet normal 1 0 0
    outer loop
      vertex 36.5 106 0
      vertex 36.5 118.5 5
      vertex 36.5 106 5
    endloop
  endfacet
  facet normal 1 0 0
    outer loop
      vertex 36.5 118.5 5
      vertex 36.5 106 0
      vertex 36.5 120.5 0
    endloop
  endfacet
  facet normal -0 0 1
    outer loop
      vertex 34.5 118.5 5
      vertex 36.5 106 5
      vertex 36.5 118.5 5
    endloop
  endfacet
  facet normal 0 0 1
    outer loop
      vertex 36.5 106 5
      vertex 34.5 118.5 5
      vertex 34.5 106 5
    endloop
  endfacet
  facet normal -0 0 1
    outer loop
      vertex 29.5 118.5 5
      vertex 31.5 106 5
      vertex 31.5 118.5 5
    endloop
  endfacet
  facet normal 0 0 1
    outer loop
      vertex 31.5 106 5
      vertex 29.5 118.5 5
      vertex 29.5 106 5
    endloop
  endfacet
  facet normal -1 0 0
    outer loop
      vertex 29.5 106 2
      vertex 29.5 118.5 5
      vertex 29.5 118.5 2
    endloop
  endfacet
  facet normal -1 -0 0
    outer loop
      vertex 29.5 118.5 5
      vertex 29.5 106 2
      vertex 29.5 106 5
    endloop
  endfacet
  facet normal 1 -0 0
    outer loop
      vertex 22 106 5
      vertex 22 118.5 2
      vertex 22 118.5 5
    endloop
  endfacet
  facet normal 1 0 0
    outer loop
      vertex 22 118.5 2
      vertex 22 106 5
      vertex 22 106 2
    endloop
  endfacet
  facet normal -0 0 1
    outer loop
      vertex 20 118.5 5
      vertex 22 106 5
      vertex 22 118.5 5
    endloop
  endfacet
  facet normal 0 0 1
    outer loop
      vertex 22 106 5
      vertex 20 118.5 5
      vertex 20 106 5
    endloop
  endfacet
  facet normal -1 0 0
    outer loop
      vertex 20 106 2
      vertex 20 118.5 5
      vertex 20 118.5 2
    endloop
  endfacet
  facet normal -1 -0 0
    outer loop
      vertex 20 118.5 5
      vertex 20 106 2
      vertex 20 106 5
    endloop
  endfacet
  facet normal 0 -1 0
    outer loop
      vertex 14 104 2
      vertex 37 104 14
      vertex 14 104 14
    endloop
  endfacet
  facet normal 0 -1 -0
    outer loop
      vertex 37 104 14
      vertex 14 104 2
      vertex 37 104 2
    endloop
  endfacet
  facet normal 0 -1 0
    outer loop
      vertex 31.5 118.5 0
      vertex 34.5 118.5 5
      vertex 31.5 118.5 5
    endloop
  endfacet
  facet normal 0 -1 -0
    outer loop
      vertex 34.5 118.5 5
      vertex 31.5 118.5 0
      vertex 34.5 118.5 0
    endloop
  endfacet
  facet normal 0 -1 0
    outer loop
      vertex 22 118.5 2
      vertex 29.5 118.5 5
      vertex 22 118.5 5
    endloop
  endfacet
  facet normal 0 -1 -0
    outer loop
      vertex 29.5 118.5 5
      vertex 22 118.5 2
      vertex 29.5 118.5 2
    endloop
  endfacet
  facet normal 0 -1 0
    outer loop
      vertex 22 118.5 5
      vertex 16 118.5 14
      vertex 20 118.5 5
    endloop
  endfacet
  facet normal 0 -1 0
    outer loop
      vertex 16 118.5 2
      vertex 20 118.5 5
      vertex 16 118.5 14
    endloop
  endfacet
  facet normal 0 -1 -0
    outer loop
      vertex 20 118.5 5
      vertex 16 118.5 2
      vertex 20 118.5 2
    endloop
  endfacet
  facet normal 0 -1 0
    outer loop
      vertex 29.5 118.5 5
      vertex 16 118.5 14
      vertex 22 118.5 5
    endloop
  endfacet
  facet normal 0 -1 0
    outer loop
      vertex 16 118.5 14
      vertex 29.5 118.5 5
      vertex 36.5 118.5 14
    endloop
  endfacet
  facet normal 0 -1 0
    outer loop
      vertex 31.5 118.5 5
      vertex 36.5 118.5 14
      vertex 29.5 118.5 5
    endloop
  endfacet
  facet normal 0 -1 0
    outer loop
      vertex 34.5 118.5 5
      vertex 36.5 118.5 14
      vertex 31.5 118.5 5
    endloop
  endfacet
  facet normal 0 -1 -0
    outer loop
      vertex 36.5 118.5 14
      vertex 34.5 118.5 5
      vertex 36.5 118.5 5
    endloop
  endfacet
  facet normal 0 1 -0
    outer loop
      vertex 36.5 120.5 0
      vertex 14 120.5 14
      vertex 36.5 120.5 14
    endloop
  endfacet
  facet normal 0 1 0
    outer loop
      vertex 14 120.5 14
      vertex 36.5 120.5 0
      vertex 14 120.5 0
    endloop
  endfacet
  facet normal 1 -0 0
    outer loop
      vertex 16 106 14
      vertex 16 118.5 2
      vertex 16 118.5 14
    endloop
  endfacet
  facet normal 1 0 0
    outer loop
      vertex 16 118.5 2
      vertex 16 106 14
      vertex 16 106 2
    endloop
  endfacet
  facet normal 0 -1 0
    outer loop
      vertex 2 71 2
      vertex 15 71 14
      vertex 2 71 14
    endloop
  endfacet
  facet normal 0 -1 -0
    outer loop
      vertex 15 71 14
      vertex 2 71 2
      vertex 15 71 2
    endloop
  endfacet
  facet normal 0 -1 0
    outer loop
      vertex 28 71 2
      vertex 29 71 14
      vertex 28 71 14
    endloop
  endfacet
  facet normal 0 -1 -0
    outer loop
      vertex 29 71 14
      vertex 28 71 2
      vertex 29 71 2
    endloop
  endfacet
  facet normal 0 -1 0
    outer loop
      vertex 30 71 2
      vertex 35.5 71 14
      vertex 30 71 14
    endloop
  endfacet
  facet normal 0 -1 -0
    outer loop
      vertex 35.5 71 14
      vertex 30 71 2
      vertex 35.5 71 2
    endloop
  endfacet
  facet normal 0 -1 0
    outer loop
      vertex 55.5 71 2
      vertex 137 71 14
      vertex 55.5 71 14
    endloop
  endfacet
  facet normal 0 -1 -0
    outer loop
      vertex 137 71 14
      vertex 55.5 71 2
      vertex 137 71 2
    endloop
  endfacet
  facet normal 1 -0 0
    outer loop
      vertex 15 71 13
      vertex 15 73 2
      vertex 15 73 13
    endloop
  endfacet
  facet normal 1 0 0
    outer loop
      vertex 15 73 2
      vertex 15 71 13
      vertex 15 71 2
    endloop
  endfacet
  facet normal 0 0 0
    outer loop
      vertex 15 71 13
      vertex 15 71 14
      vertex 15 71 2
    endloop
  endfacet
  facet normal 1 -0 0
    outer loop
      vertex 35.5 71 14
      vertex 35.5 72 2
      vertex 35.5 72 14
    endloop
  endfacet
  facet normal 1 0 0
    outer loop
      vertex 35.5 72 2
      vertex 35.5 71 14
      vertex 35.5 71 2
    endloop
  endfacet
  facet normal 1 -0 0
    outer loop
      vertex 35.5 72 14
      vertex 35.5 85 2
      vertex 35.5 85 14
    endloop
  endfacet
  facet normal 1 0 0
    outer loop
      vertex 35.5 85 2
      vertex 35.5 72 14
      vertex 35.5 72 2
    endloop
  endfacet
  facet normal -1 0 0
    outer loop
      vertex 55.5 71 2
      vertex 55.5 72 14
      vertex 55.5 72 2
    endloop
  endfacet
  facet normal -1 -0 0
    outer loop
      vertex 55.5 72 14
      vertex 55.5 71 2
      vertex 55.5 71 14
    endloop
  endfacet
  facet normal -1 0 0
    outer loop
      vertex 55.5 72 2
      vertex 55.5 85 14
      vertex 55.5 85 2
    endloop
  endfacet
  facet normal -1 -0 0
    outer loop
      vertex 55.5 85 14
      vertex 55.5 72 2
      vertex 55.5 72 14
    endloop
  endfacet
  facet normal -1 0 0
    outer loop
      vertex 33.5 73 2
      vertex 33.5 85 14
      vertex 33.5 85 2
    endloop
  endfacet
  facet normal -1 -0 0
    outer loop
      vertex 33.5 85 14
      vertex 33.5 73 2
      vertex 33.5 73 14
    endloop
  endfacet
  facet normal 0 1 -0
    outer loop
      vertex 35.5 85 2
      vertex 33.5 85 14
      vertex 35.5 85 14
    endloop
  endfacet
  facet normal 0 1 0
    outer loop
      vertex 33.5 85 14
      vertex 35.5 85 2
      vertex 33.5 85 2
    endloop
  endfacet
  facet normal 1 0 0
    outer loop
      vertex 57.5 85 14
      vertex 57.5 73 14
      vertex 57.5 85 2
    endloop
  endfacet
  facet normal 1 -0 0
    outer loop
      vertex 57.5 85 2
      vertex 57.5 98 0
      vertex 57.5 98 2
    endloop
  endfacet
  facet normal 1 0 0
    outer loop
      vertex 57.5 85 2
      vertex 57.5 73 0
      vertex 57.5 98 0
    endloop
  endfacet
  facet normal 1 0 0
    outer loop
      vertex 57.5 73 0
      vertex 57.5 85 2
      vertex 57.5 73 14
    endloop
  endfacet
  facet normal 0 1 -0
    outer loop
      vertex 57.5 85 2
      vertex 55.5 85 14
      vertex 57.5 85 14
    endloop
  endfacet
  facet normal 0 1 0
    outer loop
      vertex 55.5 85 14
      vertex 57.5 85 2
      vertex 55.5 85 2
    endloop
  endfacet
  facet normal 0 1 -0
    outer loop
      vertex 137 2 2
      vertex 2 2 14
      vertex 137 2 14
    endloop
  endfacet
  facet normal 0 1 0
    outer loop
      vertex 2 2 14
      vertex 137 2 2
      vertex 2 2 2
    endloop
  endfacet
  facet normal 1 -0 0
    outer loop
      vertex 2 2 14
      vertex 2 71 2
      vertex 2 71 14
    endloop
  endfacet
  facet normal 1 0 0
    outer loop
      vertex 2 71 2
      vertex 2 2 14
      vertex 2 2 2
    endloop
  endfacet
  facet normal 0 1 -0
    outer loop
      vertex 57.5 98 0
      vertex 54 98 2
      vertex 57.5 98 2
    endloop
  endfacet
  facet normal 0 1 0
    outer loop
      vertex 54 98 2
      vertex 57.5 98 0
      vertex 54 98 0
    endloop
  endfacet
  facet normal 0 1 -0
    outer loop
      vertex 14 98 0
      vertex 12.5 98 2
      vertex 14 98 2
    endloop
  endfacet
  facet normal 0 1 0
    outer loop
      vertex 12.5 98 2
      vertex 14 98 0
      vertex 12.5 98 0
    endloop
  endfacet
endsolid OpenSCAD_Model
